<svg xmlns="http://www.w3.org/2000/svg" viewBox="0 0 1600 900" role="img" aria-labelledby="title desc">
  <title id="title">Membership background</title>
  <desc id="desc">Premium geometric project controls membership background.</desc>
  <defs>
    <linearGradient id="bg" x1="0" y1="0" x2="1" y2="1">
      <stop offset="0" stop-color="#111827"/>
      <stop offset="0.55" stop-color="#1f2937"/>
      <stop offset="1" stop-color="#0f172a"/>
    </linearGradient>
    <radialGradient id="gold" cx="70%" cy="35%" r="50%">
      <stop offset="0" stop-color="#d8a84f" stop-opacity=".55"/>
      <stop offset=".45" stop-color="#d8a84f" stop-opacity=".16"/>
      <stop offset="1" stop-color="#d8a84f" stop-opacity="0"/>
    </radialGradient>
    <pattern id="grid" width="64" height="64" patternUnits="userSpaceOnUse">
      <path d="M64 0H0v64" fill="none" stroke="#d8a84f" stroke-opacity=".12"/>
      <circle cx="0" cy="0" r="2" fill="#d8a84f" fill-opacity=".24"/>
    </pattern>
  </defs>
  <rect width="1600" height="900" fill="url(#bg)"/>
  <rect width="1600" height="900" fill="url(#grid)"/>
  <rect width="1600" height="900" fill="url(#gold)"/>
  <g fill="none" stroke="#d8a84f" stroke-opacity=".36">
    <path d="M220 650C420 510 560 575 730 420S1110 170 1360 260"/>
    <path d="M160 390C390 330 610 385 815 285s385-110 620 5"/>
    <path d="M420 760 750 430 1065 555 1360 260"/>
  </g>
  <g fill="#d8a84f">
    <circle cx="220" cy="650" r="6"/>
    <circle cx="730" cy="420" r="7"/>
    <circle cx="1065" cy="555" r="6"/>
    <circle cx="1360" cy="260" r="8"/>
    <circle cx="815" cy="285" r="5"/>
  </g>
</svg>
